PathFileType	4	(X/Y/Z)	Patient4_TMGait_0pt7_01_left_13.trc.trc
DataRate	CameraRate	NumFrames	NumMarkers	Units	OrigDataRate	OrigDataStartFrame	OrigNumFrames
87.500000000000	87.500000000000	6	33	mm	87.500000000000	124	       141
Frame#	Time	Sacral			L.Shoulder			Chest			R.Shoulder			Neck			R.ASIS			L.ASIS			R.Thigh.Superior			R.Thigh.Lateral			R.Thigh.Inferior			R.Patella			L.Thigh.Superior			L.Thigh.Lateral			L.Thigh.Inferior			L.Patella			L.Shank.Superior			L.Shank.Lateral			L.Shank.Inferior			R.Shank.Superior			R.Shank.Lateral			R.Shank.Inferior			R.Heel			R.Midfoot.Superior			R.Midfoot.Lateral			R.Toe			L.Heel			L.Midfoot.Lateral			L.Midfoot.Superior			L.Toe			L.Elbow			L.Wrist			R.Elbow			R.Wrist			
		X1	Y1	Z1	X2	Y2	Z2	X3	Y3	Z3	X4	Y4	Z4	X5	Y5	Z5	X6	Y6	Z6	X7	Y7	Z7	X8	Y8	Z8	X9	Y9	Z9	X10	Y10	Z10	X11	Y11	Z11	X12	Y12	Z12	X13	Y13	Z13	X14	Y14	Z14	X15	Y15	Z15	X16	Y16	Z16	X17	Y17	Z17	X18	Y18	Z18	X19	Y19	Z19	X20	Y20	Z20	X21	Y21	Z21	X22	Y22	Z22	X23	Y23	Z23	X24	Y24	Z24	X25	Y25	Z25	X26	Y26	Z26	X27	Y27	Z27	X28	Y28	Z28	X29	Y29	Z29	X30	Y30	Z30	X31	Y31	Z31	X32	Y32	Z32	X33	Y33	Z33	

124	16.325714285714	821.897328207053	1005.370905775455	510.899230115650	1011.572530691460	1413.780231240487	309.759461626611	1121.317461966358	1341.424217227533	465.800633546549	1055.405895885470	1430.368871542446	639.134302215733	1017.861536104646	1479.690039416391	465.989441009788	1044.566603839946	932.161731794784	627.998678109277	1029.379612680198	937.786767858416	352.375462135862	1033.017046865560	718.600259768181	605.806255107654	920.427186437583	632.069612810958	664.200814603683	978.780767189612	563.313145338321	586.935530204123	956.962284949540	481.857356349772	591.399007019372	1101.430753173599	765.052402514744	386.516584332321	1058.185910513836	637.581906870684	302.082302577876	1163.386018149421	582.447714411073	364.700647028536	1189.796379015316	514.337760233662	360.452009985154	1170.634969737700	440.154390686225	348.267978115614	1098.701564877712	313.137525696680	298.939351100700	1183.021909535372	210.882163982336	351.628947185227	918.839262917954	398.555812774874	597.382307789072	834.829808045538	302.014830564890	654.868260623393	871.214037159018	203.962327498711	592.594726475180	728.302784006359	42.920185948019	551.243367018079	897.403871340894	96.469612916615	598.464773646145	806.431465458944	36.587370658714	631.325108989887	1015.494406282518	40.640307896572	633.906512570115	1093.045632580832	37.470070521184	387.074075872165	1167.330768151488	41.077784426796	307.176552401449	1242.494343531455	111.749036189078	331.599773168376	1374.681812774472	73.287756177571	305.289056986204	831.166544378543	1111.032648808804	231.421389867409	750.243744443606	866.241033754113	270.954022329449	1229.782212252251	1156.247532308150	761.069442783636	1409.534678705109	1298.832780418464	665.064455541365	
125	16.337142857143	823.526958179908	1004.052732767841	508.453508487995	1011.490345579171	1412.989403865221	307.180051012641	1121.317534947147	1341.428031915348	463.505934894168	1054.578921098044	1430.024938540621	636.844446646988	1017.437110930661	1479.084842487583	463.342788902399	1046.266382101627	931.156795612050	625.545605728284	1031.195500942568	937.107959286904	350.054807819204	1034.526684754882	717.312730582672	603.402900561684	921.616959380832	631.033498680275	661.913913877575	979.597634301075	561.759718584146	584.712318344919	956.935384347116	479.871553423570	588.980840637958	1102.959148457510	762.765500895102	383.677201068468	1056.032582189412	635.198156703570	301.613238660512	1161.599729769344	579.569235350668	362.904686263986	1186.032531154671	511.011391818723	359.882185321019	1167.022914641017	436.899369119298	347.831084397475	1094.078531938308	310.100790094643	299.805949269592	1177.888299143555	207.749351507665	352.647311975222	917.479720418431	396.859279645071	595.365809200178	831.953392812007	302.112081133995	653.745639414499	865.879550851855	203.195062138284	591.610589113506	720.266969464408	43.499377570002	551.415084102290	889.673684477535	96.544482818626	598.424365600442	798.489137724922	36.710329335908	631.358565540142	1007.564243991279	40.292385445023	633.954176159511	1086.000325373270	36.816534160746	389.824038136428	1159.598171217915	39.076137085511	309.155331363043	1236.346059309411	107.794227315060	333.212851586556	1367.631851758804	66.635377683348	305.642813093776	831.796765569652	1109.871407958371	229.256140102125	750.777537778307	865.129109360406	269.101369969656	1227.995718935002	1155.198621999806	760.360665559248	1404.176219338447	1300.949949083817	662.809423810016	
126	16.348571428571	825.097664950276	1002.978540187858	506.016732580537	1011.414360514262	1412.423670037163	304.592169553882	1121.372317804782	1341.614481084380	461.162536702034	1053.923653774879	1429.861007789648	634.572489825956	1017.115447316826	1478.727696311128	460.670013991630	1047.950054938746	930.327482295541	622.919085980010	1032.878268106269	936.825370871278	347.559998562655	1036.207503416418	716.242747104171	600.837834617764	923.118842932557	630.055008361631	659.454794056574	980.964217736328	560.300789612032	582.423555392401	957.539344038177	477.781717915140	586.576042011438	1104.707901641318	761.257097227463	380.506961355541	1054.384399847422	633.599136827821	300.863143713515	1160.230344896934	577.456409481383	360.921896108110	1182.771867635324	508.418512428866	359.174932387778	1163.848729102544	434.266965814269	347.306790074182	1089.895731699448	307.909866805208	299.864081521162	1172.470600346312	205.149454060063	353.324204736292	916.580860871703	395.185616380590	593.343356150763	829.347533226203	302.419393666887	652.540752013513	860.764060505262	202.600861987456	590.669673735855	712.258959278958	44.488688492197	551.637963596169	882.101858270843	96.689572036374	598.438618283305	790.589684248280	37.003568949085	631.396731881218	999.667388138910	39.909103853389	633.997297391527	1078.004164344879	36.682316731306	391.799983204950	1151.120940356791	37.618522023248	310.537675751026	1229.423987791653	104.403894899427	334.456153364911	1359.872934852998	60.543072780227	305.916305367341	833.347304822255	1108.255093079272	226.852659599265	752.915442763815	863.291497278308	266.776842163230	1225.361028002991	1153.414699356476	759.795940055456	1398.731950678688	1301.599569221554	660.795705053174	
127	16.360000000000	826.566133053689	1002.224865040930	503.586478698519	1011.351891103402	1412.132205124253	302.039486379154	1121.489932130252	1342.003081118757	458.800477286986	1053.484827595059	1429.916665141506	632.342616047607	1016.905697695892	1478.662476115061	458.019132857869	1049.567553898354	929.732275594370	620.129239213200	1034.393536198835	936.974268596515	344.888815410531	1038.005160834491	715.455828691012	598.132799907459	924.911168159782	629.191625760250	656.868551439264	982.879697129225	559.007509417441	580.112564487179	958.826264046668	475.623432973495	584.301190543117	1106.553184181540	760.526145098387	377.061783226055	1053.228486744496	632.792098105377	299.740903602344	1159.144583193913	576.061907357159	358.773141566307	1179.938694559734	506.567914986212	358.294545838935	1161.062363955085	432.277439002883	346.671217273374	1086.222056454955	306.515031517133	299.084765092146	1166.942084820511	203.119931168683	353.656277756136	916.156259156105	393.605008369847	591.406483512332	827.016216894058	303.014024466456	651.298470506678	855.906228066944	202.263138113262	589.822072980817	704.317271511648	46.031196753676	551.916895045992	874.734949381965	96.914934942356	598.520711421450	782.752256710238	37.551798059439	631.449583225691	991.802677405714	39.501891745930	634.030073138415	1069.509483245401	36.882419150282	392.995485951334	1142.345912637922	36.648320947519	311.325348544645	1222.021898073952	101.707969125601	335.297803470226	1351.768698067275	55.425566941442	306.095246999052	835.816953361091	1106.259013463157	224.231911731743	756.650587476350	860.805958254310	263.996153012132	1221.841603879482	1150.930961211527	759.337602302841	1393.278187330721	1300.781465115399	659.010415827003	
128	16.371428571429	827.907469662642	1001.846095846035	501.142589850521	1011.306111934254	1412.157491545659	299.561175947389	1121.669878319704	1342.611370051316	456.449007550770	1053.282069001268	1430.222053574205	630.174771051955	1016.804069174549	1478.920879699684	455.435828128752	1051.078373913928	929.422043359222	617.186758567028	1035.728534629154	937.566017447121	342.043017580682	1039.895221224618	715.009934777958	595.323768403919	926.997939136927	628.495808574509	654.206793081894	985.367784301743	557.946423535289	577.829698573012	960.870336497388	473.439540162781	582.278476314178	1108.361581407850	760.500728545858	373.409138963961	1052.473280683510	632.707790613777	298.205806052398	1158.164350654498	575.271999857105	356.484142538105	1177.381252438230	505.382623558504	357.215087523754	1158.521284037343	430.879406630165	345.903441325077	1082.958843061018	305.799679574547	297.575085193273	1161.374223144479	201.639411089021	353.682005458730	916.249632251872	392.185094867341	589.645437870548	824.996492104659	303.976350972225	650.066236441058	851.369166749434	202.267023388699	589.116702941193	696.502640265344	48.283704160499	552.252104112117	867.629661641741	97.235530962134	598.682263064789	775.006773444499	38.455159369964	631.523988547564	983.967764749564	39.083202947784	634.046631339407	1060.854415134113	37.253745565994	393.502659189845	1133.579709012622	36.080722177970	311.592511993633	1214.350605176650	99.743273763546	335.758364304244	1343.566243021649	51.508024016116	306.173139347681	839.187158210407	1103.981137579110	221.417608876170	761.972090842311	857.781933371592	260.781626026961	1217.386905006036	1147.818596435556	758.940358279756	1387.876631517709	1298.479505605495	657.438547334316	
129	16.382857142857	829.112824053102	1001.869671802195	498.651175714992	1011.277750546296	1412.530980620231	297.186907737842	1121.903381837946	1343.453226003925	454.133713584955	1053.304017554247	1430.793008648276	628.082427984708	1016.794566592487	1479.517818410477	452.957544020057	1052.451990318694	929.432441060311	614.103940921417	1036.890740483615	938.586575356427	339.032855916383	1041.887557967620	714.948162264074	592.456451290466	929.412736740411	628.006102952039	651.521801521566	988.478311873509	557.171457593829	575.625045845501	963.762785277343	471.277667065215	580.615850602384	1110.001113003537	761.038063115668	369.618834242924	1051.939627914456	633.204899677322	296.279062600144	1157.078923493085	574.919686468627	354.089908121221	1174.886897948890	504.718693138695	355.937859269565	1156.011832890908	429.968252101137	344.992687541407	1079.877842979929	305.600968709298	295.548582147752	1155.756839541938	200.638275652754	353.465246286841	916.935508749762	390.983979447147	588.134794912320	823.364267019893	305.382813428041	648.886169727482	847.240680699283	202.693639184119	588.592751315445	688.901518796747	51.410154910997	552.636713038539	860.852085645709	97.675593002425	598.930550597920	767.396887927629	39.829258996575	631.621561072554	976.160022854158	38.664828515004	634.042015133658	1052.257981905454	37.668025007975	393.474443129513	1124.996100062530	35.816173903412	311.457870875786	1206.547417814837	98.461617509278	335.897488826957	1335.408348152464	48.825076710793	306.154950028385	843.424055502539	1101.535651534476	218.432061375124	768.870596774990	854.355647082044	257.160384681645	1211.934734222842	1144.184170735693	758.551624352951	1382.567559271695	1294.656828230397	656.066382170765	
